#tb 0: 1/25
0,          0,          0,        1,   149760, 0xcfffa013
0,          1,          1,        1,   149760, 0x5166146a
0,          2,          2,        1,   149760, 0xc3cc318e
0,          3,          3,        1,   149760, 0x5bb465f9
0,          4,          4,        1,   149760, 0x10c97bd4
0,          5,          5,        1,   149760, 0xd9d5c4ab
0,          6,          6,        1,   149760, 0x5112e11d
0,          7,          7,        1,   149760, 0xde3803d6
0,          8,          8,        1,   149760, 0x82c62409
0,          9,          9,        1,   149760, 0x28f88d53
0,         10,         10,        1,   149760, 0x796fb89d
0,         11,         11,        1,   149760, 0x1b95dd75
0,         12,         12,        1,   149760, 0xfcc9ced4
0,         13,         13,        1,   149760, 0x6b00ee9c
0,         14,         14,        1,   149760, 0xdb72e81a
0,         15,         15,        1,   149760, 0x0c771a25
0,         16,         16,        1,   149760, 0x959a2215
0,         17,         17,        1,   149760, 0xf1d672ce
0,         18,         18,        1,   149760, 0x2f407a06
0,         19,         19,        1,   149760, 0xee389f83
0,         20,         20,        1,   149760, 0x2e0695dd
0,         21,         21,        1,   149760, 0xf80ac1eb
0,         22,         22,        1,   149760, 0x29decec4
0,         23,         23,        1,   149760, 0xff34eb5e
0,         24,         24,        1,   149760, 0x1c85fe71
0,         25,         25,        1,   149760, 0x056dae51
0,         26,         26,        1,   149760, 0x78a99f1d
0,         27,         27,        1,   149760, 0xe507b40c
0,         28,         28,        1,   149760, 0xbd3fa06c
0,         29,         29,        1,   149760, 0x3475d95b
0,         30,         30,        1,   149760, 0x9b25d416
0,         31,         31,        1,   149760, 0x73c4ec88
0,         32,         32,        1,   149760, 0xd4437e12
0,         33,         33,        1,   149760, 0xcf08c736
0,         34,         34,        1,   149760, 0x0cedd0d6
0,         35,         35,        1,   149760, 0xc317e9bc
0,         36,         36,        1,   149760, 0x0dcbd636
0,         37,         37,        1,   149760, 0x4e6501b0
0,         38,         38,        1,   149760, 0x5f9c02bb
0,         39,         39,        1,   149760, 0x43052939
0,         40,         40,        1,   149760, 0x8ec12318
